<svg xmlns="http://www.w3.org/2000/svg" width="75" height="80" fill="none"><path fill="#000" d="M13.545 17.845c-1.007-.74-1.936-1.217-2.594-1.942-2.01-2.215-2.373-4.87-1.667-7.69C10.318 4.078 13.69 1.156 18.082.55c3.676-.507 7.366-.693 11.075-.433 4.986.351 9.98.598 14.956 1.045 6.171.555 12.313 1.35 18.354 2.804 4.338 1.044 7.32 3.606 9.121 7.662a25.8 25.8 0 0 1 2.156 8.625c.254 3.45.407 6.91.511 10.368.23 7.643.465 15.286.572 22.93.054 3.938-.182 7.88-.238 11.82-.02 1.348-.469 2.428-1.518 3.265-.45.358-.865.769-1.343 1.088-5.7 3.808-11.75 6.91-18.266 9.08-2.726.91-5.524 1.226-8.376 1.194-5.058-.056-10.069-.638-15.062-1.389-8.744-1.316-17.345-3.337-25.94-5.372C.377 72.361.295 72.047.198 68.38c-.172-6.504.337-12.975 1.096-19.424.494-4.196 1.146-8.375 1.786-12.551.361-2.352 1.196-4.536 2.564-6.515a498 498 0 0 0 5.489-8.125c.845-1.275 1.608-2.607 2.411-3.92m1.18.237c-1.341 2.186-2.487 4.128-3.708 6.022-1.51 2.344-3.078 4.649-4.623 6.97-.81 1.216-1.375 2.538-1.637 3.972-.474 2.599-1 5.191-1.353 7.807C2.187 51.867 1.69 60.94 1.246 70.017c-.041.847.296 1.254 1.004 1.494.364.123.733.233 1.106.319 2.34.534 4.681 1.06 7.023 1.59 10.404 2.35 20.837 4.517 31.52 5.19 3.476.22 6.938.261 10.293-.78 7.55-2.343 14.393-6.098 20.869-10.577.627-.434.663-.96.649-1.612-.287-12.789-.542-25.578-.855-38.367-.065-2.64-.276-5.28-.54-7.91-.278-2.793-1.066-5.455-2.327-7.982-1.554-3.116-3.978-5.152-7.357-5.97-2.284-.551-4.581-1.109-6.905-1.422-5.092-.688-10.2-1.263-15.31-1.809-5.406-.578-10.833-.912-16.27-.79-2.155.048-4.329.226-6.45.59-4.76.817-7.793 4.76-7.453 9.463.204 2.836 2.08 5.017 4.874 5.605 1.41.297 2.824.584 4.25.775 6.903.919 13.808 1.835 20.72 2.691 6.02.745 12.072 1.041 18.135.77 1.662-.074 3.324-.46 4.952-.843 1.133-.265 2.177-.866 2.816-1.888 1.275-2.038 1.45-4.253.717-6.511-.398-1.227-1.398-1.822-2.658-1.865-1.188-.041-1.982.617-2.463 1.668-.686 1.498-.752 3.066-.447 4.657.06.318.236.634.428.901.523.73 1.087.843 1.878.428 1.537-.806 2.032-3.036.983-4.489-.062-.085-.247-.083-.535-.17l-.805 2.298c-.747-.761-.552-1.485-.272-2.208.22-.568.596-1.034 1.23-1.089.641-.056 1.057.373 1.375.888 1.166 1.891.348 4.746-1.644 5.733-1.099.545-2.242.352-2.968-.618-.364-.486-.675-1.082-.785-1.67-.315-1.68-.219-3.356.471-4.951.718-1.66 2.153-2.64 3.663-2.532 1.884.133 3.301 1.227 3.79 3.025.543 2.007.41 4.004-.32 5.948-.494 1.31-1.387 2.276-2.619 2.956-1.726.953-3.619 1.31-5.534 1.451-5.484.403-10.958.073-16.418-.438-3.634-.34-7.263-.765-10.88-1.261-5.281-.724-10.55-1.542-15.822-2.326-.608-.087-1.207-.218-1.63-.297"/><path fill="#B3804F" d="M73.71 65.642c-.287-12.789-.542-25.578-.855-38.366-.065-2.64-.276-5.281-.54-7.91-.278-2.793-1.066-5.456-2.327-7.982-1.347-2.702-3.348-4.59-6.058-5.578-.717.256-1.4.615-2.01 1.07q.299-.103.622-.182c-1.77 1.696-3.522 3.346-4.15 5.86-.61 2.44-.044 4.79.567 7.319a3 3 0 0 1-.649-.618c.13.75.591 1.526 1.195 1.915 1.231-.159 2.459-.445 3.668-.728 1.132-.265 2.177-.866 2.816-1.888 1.275-2.038 1.45-4.253.717-6.511-.399-1.227-1.399-1.822-2.658-1.865-1.188-.041-1.983.617-2.464 1.668-.685 1.499-.751 3.066-.446 4.657.06.318.236.634.428.902.522.729 1.087.842 1.878.427 1.537-.806 2.031-3.036.982-4.489-.061-.085-.246-.083-.534-.17-.262.746-.515 1.467-.805 2.298-.747-.76-.552-1.485-.272-2.208.22-.568.596-1.034 1.23-1.089.64-.056 1.057.373 1.374.888 1.167 1.892.349 4.746-1.643 5.733-1.1.545-2.242.352-2.969-.618-.363-.485-.674-1.082-.785-1.67-.314-1.68-.218-3.356.472-4.95.718-1.661 2.153-2.64 3.663-2.533 1.884.134 3.301 1.227 3.789 3.025.544 2.007.411 4.004-.32 5.948-.494 1.31-1.386 2.276-2.618 2.956-1.727.953-3.619 1.31-5.534 1.451l-.145.01c-.139.412-.361.787-.573 1.175.263.677-.054 1.04-.234 1.418-1.576 3.295-3.117 6.605-4.746 9.875-2.18 4.38-3.181 9.008-3.42 13.883-.343 7.01-.881 14.008-1.335 21.012-.115 1.775-.22 3.552-.34 5.327-.027.398-.1.795-.188 1.454a2 2 0 0 1-.284-.376c-.043.823-.003 1.62.063 2.418 1.32-.131 2.629-.37 3.923-.772 7.548-2.343 14.392-6.098 20.868-10.577.626-.431.662-.958.647-1.61m-12.872-4.59c-.799 1.256-1.632 2.492-2.437 3.745-2.106 3.272-4.202 6.55-6.307 9.822-.197.305-.425.589-.639.881l-.38-.17c.138-.374.23-.775.421-1.119 2.742-4.902 5.94-9.496 9.542-13.866-.064.238-.074.509-.2.706m2.77-3.853c-.06.481-.263.945-.4 1.416q-.175-.043-.35-.083c1.41-11.816 2.533-23.654 2.662-35.858.683.58.614 1.075.603 1.5-.076 3.265-.098 6.534-.293 9.793-.264 4.413-.616 8.82-1.03 13.22-.313 3.344-.771 6.677-1.192 10.012m8.57 8.07a863 863 0 0 1-6.773-4.874c-.139-.1-.224-.274-.334-.413q.13-.161.26-.321c2.53 1.794 5.21 3.375 7.443 5.681-.202-.02-.453.029-.597-.074"/><path fill="#CB915A" d="M58.312 19.256c-1.18-1.496-1.568-4.425-.846-6.98.696-2.46 1.92-4.534 4.456-5.4a7.6 7.6 0 0 1 2.01-1.07 12 12 0 0 0-1.3-.392c-2.284-.552-4.581-1.11-6.905-1.423-5.092-.688-10.2-1.263-15.31-1.809-5.406-.578-10.833-.912-16.27-.79-2.155.049-4.328.226-6.45.59-4.76.817-7.793 4.76-7.453 9.463.204 2.836 2.08 5.017 4.874 5.605 1.41.297 2.824.584 4.25.775 6.904.919 13.808 1.835 20.72 2.691 6.02.745 12.072 1.041 18.136.77q.642-.03 1.283-.114c-.606-.39-1.066-1.167-1.195-1.916M44.434 23.036c-10.177-1.583-20.245-1.872-30-4.475-1.218 1.992-2.286 3.79-3.417 5.543-1.51 2.344-3.078 4.65-4.623 6.97-.81 1.216-1.375 2.538-1.636 3.972-.475 2.599-1 5.192-1.353 7.807-1.217 9.014-1.715 18.088-2.16 27.164-.04.847.297 1.254 1.005 1.494.364.123.733.233 1.107.319 2.339.534 4.68 1.06 7.022 1.59 10.404 2.35 20.837 4.517 31.52 5.19 2.137.135 4.267.202 6.37-.007-.064-.8-.105-1.596-.062-2.418-.246-.432-.176-.802-.162-1.136q.191-4.178.421-8.354.39-7.056.801-14.111c.152-2.59.307-5.181.5-7.77.23-3.108 1.151-6.05 2.47-8.838 1.767-3.733 3.691-7.392 5.562-11.075.225-.444.541-.841.914-1.411q.023.05.041.1l.142-.258c-4.821.389-9.606.436-14.462-.296m-.707 14.08c-2.952-.387-5.898-.814-8.85-1.198-4.333-.563-8.668-1.105-13.004-1.645-3.955-.493-7.91-.97-11.866-1.462-.165-.02-.32-.126-.48-.192 2.738-.678 33.07 3.162 35.463 4.393-.612.056-.946.147-1.263.105"/><path fill="#C28B56" d="M58.898 23.333c.164-.3.323-.596.43-.918-5.434.388-10.861.06-16.273-.447-3.634-.341-7.263-.766-10.88-1.262-5.282-.723-10.55-1.542-15.822-2.326-.605-.09-1.204-.22-1.626-.299q-.149.24-.293.478c9.755 2.603 19.824 2.892 30.001 4.475 4.855.734 9.64.686 14.463.3"/><path fill="#000" d="M58.714 23.49c.336.744-.003 1.123-.193 1.52-1.576 3.294-3.117 6.604-4.746 9.874-2.18 4.38-3.181 9.008-3.42 13.883-.343 7.01-.881 14.009-1.335 21.013-.115 1.774-.22 3.551-.34 5.326-.027.399-.101.795-.188 1.455-.575-.6-.465-1.084-.445-1.512q.19-4.178.42-8.354.39-7.056.801-14.111c.152-2.59.307-5.181.5-7.77.23-3.108 1.151-6.05 2.47-8.838 1.767-3.733 3.691-7.392 5.562-11.075.225-.443.541-.841.914-1.41M9.526 32.619c2.74-.678 33.07 3.162 35.464 4.392-.612.056-.947.148-1.263.106-2.952-.388-5.898-.815-8.85-1.2a2500 2500 0 0 0-13.004-1.645c-3.955-.492-7.91-.969-11.866-1.461-.166-.02-.321-.126-.481-.192M62.858 58.532c1.41-11.816 2.533-23.654 2.662-35.858.684.58.614 1.075.604 1.5-.077 3.265-.099 6.534-.294 9.793-.264 4.412-.616 8.82-1.03 13.22-.314 3.347-.773 6.679-1.193 10.013-.06.481-.263.945-.4 1.416q-.173-.044-.35-.084M62.543 6.694c-1.77 1.696-3.522 3.346-4.15 5.86-.61 2.44-.044 4.79.568 7.319-1.672-1.134-2.336-4.619-1.495-7.598.75-2.652 2.114-4.858 5.077-5.581M51.074 75.33c.138-.374.23-.775.421-1.119 2.742-4.902 5.94-9.496 9.542-13.866-.064.237-.073.508-.199.705-.799 1.257-1.632 2.492-2.438 3.746-2.105 3.272-4.202 6.55-6.307 9.822-.197.305-.425.588-.639.88zM65.33 59.662c2.53 1.794 5.21 3.375 7.443 5.681-.201-.021-.453.027-.595-.075a861 861 0 0 1-6.773-4.873c-.139-.1-.224-.274-.334-.413z"/></svg>